# xmcd CD database file
#
# Track frame offsets:
#	151
#	45840
#	83024
#	117953
#	154922
#	190256
#	226993
#	267935
#	295807
#
# Disc length: 4224 seconds
#
# Revision: 0
# Processed by: cddbd v1.5.2PL0 Copyright (c) Steve Scherf et al.
# Submitted via: CDex 1.51
#
DISCID=6e107e09
DTITLE=Tommy Smith and Brian Kellock - Bezique
DYEAR=2002
DGENRE=Jazz
TTITLE0=Bud Powell (Chick Corea)
TTITLE1=Very Early (Bill Evans)
TTITLE2=Never Let Me Go (Livingston/Evans)
TTITLE3=Come Rain Or Come Shine (Mercer/Arlen)
TTITLE4=The Thrill Is Gone (Brown/Henderson)
TTITLE5=Ladies In Mercedes (Steve Swallow)
TTITLE6=Don't You Know I Care (Duke Ellington)
TTITLE7=Parker 51 (Stan Getz)
TTITLE8=Lush Life (Billy Strayhorn)
EXTD=YEAR: 2002
EXTT0=
EXTT1=
EXTT2=
EXTT3=
EXTT4=
EXTT5=
EXTT6=
EXTT7=
EXTT8=
PLAYORDER=
